<?xml version="1.0" encoding="UTF-8"?>
<svg id="Layer_1" data-name="Layer 1" xmlns="http://www.w3.org/2000/svg" viewBox="0 0 1080 1080">
  <defs>
    <style>
      .cls-1 {
        fill: #e81d25;
      }

      .cls-2 {
        fill: #231f20;
      }
    </style>
  </defs>
  <path class="cls-2" d="M458.87,701.3h-45.22c-14.24,0-32.63-17.66-34.12-31.94-1.91-57.52-.32-115.37-.81-173-7.08-48.97-52.28-34.38-86.28-37.51-16.52-1.52-34.96-19.17-34.96-36.23v-43.93h165.79c14.82,0,35.6,19.42,35.6,34.31v288.29Z"/>
  <path class="cls-2" d="M822.52,499.91v43.93c0,15.15-18.99,36.24-34.31,36.24h-86.91v85.62c0,15.28-19.63,35.6-34.95,35.6h-45.22v-167.08c0-14.64,20.44-34.31,34.95-34.31h166.43Z"/>
  <path class="cls-2" d="M822.52,378.7v43.93c0,15.29-18.74,36.24-34.31,36.24h-167.08v-45.86c0-15.01,20.77-34.31,35.6-34.31h165.79Z"/>
  <path class="cls-2" d="M580.09,701.3h-80.17v-166.43c0-2.55,2.97-10.5,4.25-13.07,13.83-27.86,54.59-29.36,70.26-2.43,1.88,3.22,5.66,12.01,5.66,15.5v166.43Z"/>
  <path class="cls-1" d="M580.09,378.7v45.86c0,9.88-11.07,23.92-19.29,28.81-36.74,21.87-78.03-20.91-53.97-57.18,5.23-7.88,19.06-17.49,28.69-17.49h44.57Z"/>
</svg>